<svg width="386" height="438" viewBox="0 0 386 438" fill="none" xmlns="http://www.w3.org/2000/svg">
<path d="M85.6124 136.699C89.3667 134.527 95.4617 134.527 99.2161 136.699L181.027 184.02C184.782 186.192 184.782 189.717 181.027 191.889L99.2161 239.21C95.4617 241.382 89.3667 241.382 85.6124 239.21L3.80126 191.881C0.0468766 189.709 0.0468766 186.184 3.80126 184.012L85.6124 136.691V136.699Z" fill="#1B1B1B"/>
<path fill-rule="evenodd" clip-rule="evenodd" d="M167.239 164.341C169.116 163.255 170.058 161.831 170.058 160.407V184.013C170.058 185.437 169.116 186.861 167.239 187.947L99.2199 227.29C95.4656 229.461 89.3706 229.461 85.6162 227.29L17.5974 187.947V164.341L85.6162 203.684C89.3706 205.856 95.4656 205.856 99.2199 203.684L167.239 164.341ZM14.7776 160.407C14.7776 161.831 15.7202 163.255 17.5974 164.341V187.947C15.7202 186.861 14.7776 185.437 14.7776 184.013V160.407Z" fill="#D4D4D4"/>
<path d="M85.03 227.125V203.504L78.7544 199.868V223.498L85.03 227.125Z" fill="white"/>
<path d="M14.6075 160.407V189.575H17.7493V160.407H14.6075ZM14.6075 189.575C14.6075 190.441 15.3144 191.149 16.1784 191.149C17.0424 191.149 17.7493 190.441 17.7493 189.575H14.6075ZM17.7493 160.407C17.7493 159.541 17.0424 158.833 16.1784 158.833C15.3144 158.833 14.6075 159.541 14.6075 160.407H17.7493Z" fill="#1B1B1B"/>
<path d="M90.8547 205.022V234.19H93.9964V205.022H90.8547ZM90.8547 234.19C90.8547 235.056 91.5616 235.764 92.4255 235.764C93.2895 235.764 93.9964 235.056 93.9964 234.19H90.8547ZM93.9964 205.022C93.9964 204.156 93.2895 203.448 92.4255 203.448C91.5616 203.448 90.8547 204.156 90.8547 205.022H93.9964Z" fill="#1B1B1B"/>
<path d="M166.975 160.815V189.984H170.117V160.815H166.975ZM166.975 189.984C166.975 190.85 167.682 191.558 168.546 191.558C169.41 191.558 170.117 190.85 170.117 189.984H166.975ZM170.117 160.815C170.117 159.95 169.41 159.242 168.546 159.242C167.682 159.242 166.975 159.95 166.975 160.815H170.117Z" fill="#1B1B1B"/>
<path d="M85.6124 117.13C89.3668 114.958 95.4618 114.958 99.2162 117.13L167.235 156.472C170.989 158.644 170.989 162.169 167.235 164.341L99.2162 203.684C95.4618 205.855 89.3668 205.855 85.6124 203.684L17.5936 164.341C13.8392 162.169 13.8392 158.644 17.5936 156.472L85.6124 117.13Z" fill="#9DF25B"/>
<mask id="mask0_9_648" style="mask-type:luminance" maskUnits="userSpaceOnUse" x="14" y="115" width="157" height="91">
<path d="M85.6123 117.13C89.3667 114.958 95.4616 114.958 99.216 117.13L167.235 156.473C170.989 158.644 170.989 162.169 167.235 164.341L99.216 203.684C95.4616 205.856 89.3667 205.856 85.6123 203.684L17.5934 164.341C13.8391 162.169 13.8391 158.644 17.5934 156.473L85.6123 117.13Z" fill="white"/>
</mask>
<g mask="url(#mask0_9_648)">
<path d="M101.931 115.556C96.6687 112.511 88.1467 112.511 82.8843 115.556L88.3274 118.703C90.5816 117.397 94.2338 117.397 96.4881 118.703L101.931 115.556ZM164.507 158.046C166.761 159.352 166.761 161.461 164.507 162.767L169.95 165.915C175.212 162.869 175.212 157.944 169.95 154.899L164.507 158.046ZM96.4881 202.11C94.2338 203.416 90.5816 203.416 88.3274 202.11L82.8843 205.257C88.1467 208.302 96.6687 208.302 101.931 205.257L96.4881 202.11ZM20.3085 162.767C18.0543 161.461 18.0543 159.352 20.3085 158.046L14.8655 154.899C9.60303 157.944 9.60303 162.869 14.8655 165.915L20.3085 162.767ZM20.3085 158.046L88.3274 118.703L82.8843 115.556L14.8655 154.899L20.3085 158.046ZM88.3274 202.11L20.3085 162.767L14.8655 165.915L82.8843 205.257L88.3274 202.11ZM164.507 162.767L96.4881 202.11L101.931 205.257L169.95 165.915L164.507 162.767ZM96.4881 118.703L164.507 158.046L169.95 154.899L101.931 115.556L96.4881 118.703Z" fill="#1B1B1B"/>
</g>
<path d="M85.6148 128.665C89.3692 126.494 95.4642 126.494 99.2186 128.665L147.295 156.473C151.05 158.645 151.05 162.17 147.295 164.341L99.2186 192.149C95.4642 194.321 89.3692 194.321 85.6148 192.149L37.5382 164.341C33.7838 162.17 33.7838 158.645 37.5382 156.473L85.6148 128.665Z" fill="#1B1B1B"/>
<mask id="mask1_9_648" style="mask-type:luminance" maskUnits="userSpaceOnUse" x="34" y="127" width="117" height="67">
<path d="M85.6148 128.665C89.3692 126.494 95.4642 126.494 99.2186 128.665L147.295 156.473C151.05 158.645 151.05 162.17 147.295 164.341L99.2186 192.149C95.4642 194.321 89.3692 194.321 85.6148 192.149L37.5382 164.341C33.7838 162.17 33.7838 158.645 37.5382 156.473L85.6148 128.665Z" fill="white"/>
</mask>
<g mask="url(#mask1_9_648)">
<path d="M101.934 127.092C96.6712 124.047 88.1492 124.047 82.8868 127.092L88.3299 130.24C90.5841 128.934 94.2364 128.934 96.4906 130.24L101.934 127.092ZM144.567 158.047C146.821 159.353 146.821 161.462 144.567 162.768L150.01 165.916C155.273 162.871 155.273 157.945 150.01 154.9L144.567 158.047ZM96.4906 190.576C94.2364 191.882 90.5841 191.882 88.3299 190.576L82.8868 193.723C88.1492 196.768 96.6712 196.768 101.934 193.723L96.4906 190.576ZM40.2533 162.768C37.9991 161.462 37.9991 159.353 40.2533 158.047L34.8102 154.9C29.5478 157.945 29.5478 162.871 34.8102 165.916L40.2533 162.768ZM40.2533 158.047L88.3299 130.24L82.8868 127.092L34.8102 154.9L40.2533 158.047ZM88.3299 190.576L40.2533 162.768L34.8102 165.916L82.8868 193.723L88.3299 190.576ZM144.567 162.768L96.4906 190.576L101.934 193.723L150.01 165.916L144.567 162.768ZM96.4906 130.24L144.567 158.047L150.01 154.9L101.934 127.092L96.4906 130.24Z" fill="#1B1B1B"/>
</g>
<path d="M117.408 210.333C119.151 211.309 120.227 213.15 120.227 215.149H124.94C124.94 211.435 122.937 208.02 119.701 206.21L117.408 210.333ZM120.227 225.677C120.227 229.383 122.23 232.806 125.466 234.607L127.76 230.484C126.016 229.509 124.94 227.667 124.94 225.677H120.227ZM125.466 234.607L194.098 272.974L196.391 268.851L127.76 230.484L125.466 234.607ZM120.227 215.141V225.677H124.94V215.141H120.227ZM116.764 209.971L117.408 210.333L119.701 206.21L119.057 205.848L116.764 209.971ZM194.098 272.974C195.237 273.612 196.666 273.203 197.302 272.062C197.938 270.921 197.53 269.489 196.391 268.851L194.098 272.974ZM119.057 205.848C117.918 205.211 116.489 205.62 115.853 206.761C115.216 207.902 115.625 209.334 116.764 209.971L119.057 205.848Z" fill="#4379CB"/>
<path d="M126.36 205.831C128.103 206.807 129.179 208.648 129.179 210.647H133.892C133.892 206.933 131.889 203.518 128.653 201.708L126.36 205.831ZM129.179 221.175C129.179 224.881 131.182 228.304 134.418 230.106L136.712 225.983C134.968 225.007 133.892 223.166 133.892 221.175H129.179ZM134.418 230.106L203.05 268.473L205.343 264.35L136.712 225.983L134.418 230.106ZM129.179 210.639V221.175H133.892V210.639H129.179ZM125.716 205.469L126.36 205.831L128.653 201.708L128.009 201.346L125.716 205.469ZM203.05 268.473C204.189 269.11 205.618 268.701 206.254 267.56C206.891 266.419 206.482 264.987 205.343 264.35L203.05 268.473ZM128.009 201.346C126.87 200.709 125.441 201.118 124.805 202.259C124.168 203.4 124.577 204.832 125.716 205.469L128.009 201.346Z" fill="#4379CB"/>
<path fill-rule="evenodd" clip-rule="evenodd" d="M301.722 164.688C305.476 162.516 311.571 162.516 315.325 164.688L437.759 235.505C439.636 236.591 440.579 238.015 440.579 239.439V278.782C440.579 280.206 439.636 281.63 437.759 282.716L315.325 353.533C311.571 355.705 305.476 355.705 301.722 353.533L179.288 282.716C177.411 281.63 176.468 280.206 176.468 278.782V239.439C176.468 238.015 177.411 236.591 179.288 235.505V237.818L299.852 168.079V205.108L301.722 204.03V164.688Z" fill="white"/>
<mask id="mask2_9_648" style="mask-type:luminance" maskUnits="userSpaceOnUse" x="176" y="163" width="265" height="193">
<path d="M301.722 164.688C305.476 162.516 311.571 162.516 315.325 164.688L437.759 235.505C439.636 236.591 440.579 238.015 440.579 239.439V278.782C440.579 280.206 439.636 281.63 437.759 282.716L315.325 353.533C311.571 355.705 305.476 355.705 301.722 353.533L179.288 282.716C177.411 281.63 176.468 280.206 176.468 278.782V239.439C176.468 238.015 177.411 236.591 179.288 235.505V237.818L299.852 168.079V205.108L301.722 204.03V164.688Z" fill="white"/>
</mask>
<g mask="url(#mask2_9_648)">
<path d="M298.582 164.688V204.031H304.866V164.688H298.582ZM300.153 201.308L298.284 202.386L301.425 207.839L303.295 206.761L300.153 201.308ZM302.996 205.117V168.087H296.713V205.117H302.996ZM298.284 165.365L177.719 235.104L180.861 240.557L301.425 170.818L298.284 165.365ZM182.432 237.826V235.513H176.148V237.826H182.432ZM177.719 232.79C175.269 234.207 173.328 236.504 173.328 239.455H179.612C179.612 239.455 179.612 239.431 179.628 239.392C179.643 239.353 179.675 239.274 179.746 239.172C179.903 238.951 180.225 238.613 180.861 238.251L177.719 232.798V232.79ZM173.328 239.447V278.79H179.612V239.447H173.328ZM173.328 278.79C173.328 281.733 175.269 284.03 177.719 285.447L180.861 279.994C180.232 279.632 179.903 279.294 179.746 279.073C179.667 278.963 179.636 278.892 179.628 278.853C179.612 278.814 179.612 278.798 179.612 278.79H173.328ZM177.719 285.447L300.153 356.264L303.295 350.811L180.861 279.994L177.719 285.447ZM300.153 356.264C302.619 357.688 305.659 358.317 308.526 358.317C311.393 358.317 314.432 357.696 316.898 356.264L313.757 350.811C312.469 351.558 310.584 352.023 308.526 352.023C306.468 352.023 304.583 351.558 303.295 350.811L300.153 356.264ZM316.898 356.264L439.332 285.447L436.191 279.994L313.757 350.811L316.898 356.264ZM439.332 285.447C441.783 284.03 443.723 281.733 443.723 278.782H437.439C437.439 278.782 437.439 278.806 437.424 278.845C437.408 278.884 437.377 278.963 437.306 279.065C437.149 279.286 436.827 279.624 436.191 279.986L439.332 285.439V285.447ZM443.723 278.79V239.447H437.439V278.79H443.723ZM443.723 239.447C443.723 236.504 441.783 234.207 439.332 232.79L436.191 238.243C436.819 238.605 437.149 238.944 437.306 239.164C437.384 239.274 437.416 239.345 437.424 239.384C437.439 239.424 437.439 239.439 437.439 239.447H443.723ZM439.332 232.79L316.898 161.973L313.757 167.426L436.191 238.243L439.332 232.79ZM312.186 164.696V204.039H318.469V164.696H312.186ZM318.469 204.039V164.696H312.186V204.039H318.469ZM316.898 161.973C314.432 160.549 311.393 159.92 308.526 159.92C305.659 159.92 302.619 160.541 300.153 161.973L303.295 167.426C304.583 166.679 306.468 166.215 308.526 166.215C310.584 166.215 312.469 166.679 313.757 167.426L316.898 161.973ZM301.724 204.039L303.295 206.761C304.269 206.203 304.866 205.156 304.866 204.039H301.724ZM299.854 205.117H296.713C296.713 206.242 297.31 207.281 298.284 207.839C299.258 208.398 300.451 208.398 301.425 207.839L299.854 205.117ZM299.854 168.087H302.996C302.996 166.962 302.399 165.923 301.425 165.365C300.451 164.806 299.258 164.806 298.284 165.365L299.854 168.087ZM179.29 237.826H176.148C176.148 238.951 176.745 239.99 177.719 240.549C178.693 241.107 179.887 241.107 180.861 240.549L179.29 237.826ZM179.29 235.513H182.432C182.432 234.388 181.835 233.349 180.861 232.79C179.887 232.232 178.693 232.232 177.719 232.79L179.29 235.513ZM315.328 164.696L316.898 161.973C315.925 161.415 314.731 161.415 313.757 161.973C312.783 162.532 312.186 163.579 312.186 164.696H315.328ZM312.186 204.039C312.186 205.778 313.592 207.186 315.328 207.186C317.063 207.186 318.469 205.778 318.469 204.039H312.186ZM301.724 164.696L300.153 161.973C299.179 162.532 298.582 163.579 298.582 164.696H301.724ZM315.328 164.696H318.469C318.469 163.571 317.872 162.532 316.898 161.973L315.328 164.696Z" fill="#1B1B1B"/>
</g>
<path d="M297.301 311.436L290.703 307.526V345.452L297.301 349.363V311.436Z" fill="#1B1B1B"/>
<path d="M291.101 345.451V307.525H290.315V345.451H291.101ZM297.51 349.031L290.912 345.113L290.512 345.79L297.109 349.708L297.51 349.031ZM296.921 311.443V349.37H297.706V311.443H296.921ZM290.512 307.863L297.109 311.782L297.51 311.105L290.912 307.186L290.512 307.863ZM290.708 345.451H290.315V345.679L290.512 345.797L290.708 345.459V345.451ZM297.306 349.37L297.109 349.708L297.699 350.062V349.37H297.306ZM297.306 311.443H297.699V311.215L297.502 311.097L297.306 311.435V311.443ZM290.708 307.525L290.905 307.186L290.315 306.832V307.525H290.708Z" fill="#1B1B1B"/>
<path d="M315.331 314.189L437.765 243.372V282.715L315.331 353.532V314.189Z" fill="#1B1B1B"/>
<path d="M301.727 314.19C305.481 316.362 311.576 316.362 315.331 314.19V353.533C311.576 355.704 305.481 355.704 301.727 353.533V314.19Z" fill="#1B1B1B"/>
<path d="M301.726 164.688C305.481 162.516 311.576 162.516 315.33 164.688L437.764 235.505C441.518 237.676 441.518 241.202 437.764 243.373L315.33 314.19C311.576 316.362 305.481 316.362 301.726 314.19L179.293 243.373C175.538 241.202 175.538 237.676 179.293 235.505L301.726 164.688Z" fill="white"/>
<mask id="mask3_9_648" style="mask-type:luminance" maskUnits="userSpaceOnUse" x="176" y="163" width="265" height="153">
<path d="M301.726 164.688C305.481 162.516 311.576 162.516 315.33 164.688L437.764 235.505C441.518 237.676 441.518 241.202 437.764 243.373L315.33 314.19C311.576 316.362 305.481 316.362 301.726 314.19L179.293 243.373C175.538 241.202 175.538 237.676 179.293 235.505L301.726 164.688Z" fill="white"/>
</mask>
<g mask="url(#mask3_9_648)">
<path d="M318.05 163.115C312.787 160.07 304.265 160.07 299.003 163.115L304.446 166.262C306.7 164.956 310.352 164.956 312.607 166.262L318.05 163.115ZM435.048 237.079C437.303 238.385 437.303 240.494 435.048 241.8L440.491 244.948C445.754 241.903 445.754 236.977 440.491 233.932L435.048 237.079ZM312.615 312.617C310.36 313.923 306.708 313.923 304.454 312.617L299.011 315.765C304.273 318.81 312.795 318.81 318.058 315.765L312.615 312.617ZM182.012 241.8C179.758 240.494 179.758 238.385 182.012 237.079L176.569 233.932C171.307 236.977 171.307 241.903 176.569 244.948L182.012 241.8ZM182.012 237.079L304.446 166.262L299.003 163.115L176.569 233.932L182.012 237.079ZM304.446 312.617L182.012 241.8L176.569 244.948L299.003 315.765L304.446 312.617ZM435.048 241.8L312.615 312.617L318.058 315.765L440.491 244.948L435.048 241.8ZM312.615 166.262L435.048 237.079L440.491 233.932L318.058 163.115L312.615 166.262Z" fill="#1B1B1B"/>
</g>
<path d="M191.837 269.183C193.167 268.414 193.169 265.923 191.841 263.62C190.514 261.317 188.36 260.073 187.03 260.842C185.7 261.611 185.698 264.102 187.026 266.405C188.353 268.709 190.507 269.952 191.837 269.183Z" fill="#9DF25B"/>
<path d="M203.213 275.758C204.543 274.989 204.545 272.498 203.218 270.195C201.89 267.892 199.736 266.648 198.406 267.417C197.077 268.186 197.075 270.677 198.402 272.98C199.729 275.283 201.883 276.527 203.213 275.758Z" fill="#9DF25B"/>
<path d="M214.572 282.329C215.902 281.56 215.904 279.07 214.577 276.766C213.249 274.463 211.095 273.22 209.765 273.989C208.436 274.758 208.434 277.249 209.761 279.552C211.088 281.855 213.243 283.099 214.572 282.329Z" fill="#9DF25B"/>
<path d="M225.923 288.9C227.253 288.131 227.255 285.64 225.927 283.337C224.6 281.034 222.446 279.79 221.116 280.559C219.786 281.328 219.784 283.819 221.112 286.122C222.439 288.426 224.593 289.669 225.923 288.9Z" fill="#4379CB"/>
<path fill-rule="evenodd" clip-rule="evenodd" d="M427.482 202.834C427.482 204.117 426.633 205.399 424.945 206.375L314.646 270.173V305.613L424.945 241.815C426.633 240.839 427.482 239.556 427.482 238.266V202.826V202.834ZM302.385 135.495C305.77 133.536 311.253 133.536 314.638 135.495L213.167 218.579L302.385 270.181C305.77 272.14 311.253 272.14 314.638 270.181V305.621C311.253 307.58 305.77 307.58 302.385 305.621L192.086 241.823C190.398 240.847 189.549 239.564 189.549 238.282V202.842C189.549 201.559 190.398 200.277 192.086 199.293L302.385 135.495Z" fill="#9DF25B"/>
<path d="M302.383 135.495C305.768 133.536 311.25 133.536 314.636 135.495L424.935 199.293C428.32 201.253 428.32 204.424 424.935 206.383L314.636 270.181C311.25 272.14 305.768 272.14 302.383 270.181L192.084 206.383C188.699 204.424 188.699 201.253 192.084 199.293L302.383 135.495Z" fill="#9DF25B"/>
<path fill-rule="evenodd" clip-rule="evenodd" d="M301.722 110.22C305.476 108.049 311.571 108.049 315.325 110.22L437.759 181.037C439.636 182.123 440.579 183.547 440.579 184.972V224.314C440.579 225.739 439.636 227.163 437.759 228.249L315.325 299.066C311.571 301.237 305.476 301.237 301.722 299.066L179.288 228.249C177.411 227.163 176.468 225.739 176.468 224.314V184.972C176.468 183.547 177.411 182.123 179.288 181.037V183.351L299.852 113.612V150.641L301.722 149.563V110.22Z" fill="white"/>
<mask id="mask4_9_648" style="mask-type:luminance" maskUnits="userSpaceOnUse" x="176" y="108" width="265" height="193">
<path d="M301.722 110.22C305.476 108.049 311.571 108.049 315.325 110.22L437.759 181.037C439.636 182.123 440.579 183.547 440.579 184.972V224.314C440.579 225.739 439.636 227.163 437.759 228.249L315.325 299.066C311.571 301.237 305.476 301.237 301.722 299.066L179.288 228.249C177.411 227.163 176.468 225.739 176.468 224.314V184.972C176.468 183.547 177.411 182.123 179.288 181.037V183.351L299.852 113.612V150.641L301.722 149.563V110.22Z" fill="white"/>
</mask>
<g mask="url(#mask4_9_648)">
<path d="M298.582 110.221V149.563H304.866V110.221H298.582ZM300.153 146.841L298.284 147.919L301.425 153.372L303.295 152.294L300.153 146.841ZM302.996 150.649V113.62H296.713V150.649H302.996ZM298.284 110.897L177.719 180.636L180.861 186.089L301.425 116.35L298.284 110.897ZM182.432 183.359V181.046H176.148V183.359H182.432ZM177.719 178.323C175.269 179.739 173.328 182.037 173.328 184.988H179.612C179.612 184.988 179.612 184.964 179.628 184.925C179.643 184.885 179.675 184.807 179.746 184.704C179.903 184.484 180.225 184.146 180.861 183.784L177.719 178.331V178.323ZM173.328 184.98V224.323H179.612V184.98H173.328ZM173.328 224.323C173.328 227.265 175.269 229.563 177.719 230.979L180.861 225.526C180.232 225.164 179.903 224.826 179.746 224.606C179.667 224.496 179.636 224.425 179.628 224.385C179.612 224.346 179.612 224.33 179.612 224.323H173.328ZM177.719 230.979L300.153 301.796L303.295 296.343L180.861 225.526L177.719 230.979ZM300.153 301.796C302.619 303.22 305.659 303.85 308.526 303.85C311.393 303.85 314.432 303.228 316.898 301.796L313.757 296.343C312.469 297.091 310.584 297.555 308.526 297.555C306.468 297.555 304.583 297.091 303.295 296.343L300.153 301.796ZM316.898 301.796L439.332 230.979L436.191 225.526L313.757 296.343L316.898 301.796ZM439.332 230.979C441.783 229.563 443.723 227.265 443.723 224.315H437.439C437.439 224.315 437.439 224.338 437.424 224.378C437.408 224.417 437.377 224.496 437.306 224.598C437.149 224.818 436.827 225.157 436.191 225.519L439.332 230.971V230.979ZM443.723 224.323V184.98H437.439V224.323H443.723ZM443.723 184.98C443.723 182.037 441.783 179.739 439.332 178.323L436.191 183.776C436.819 184.138 437.149 184.476 437.306 184.697C437.384 184.807 437.416 184.878 437.424 184.917C437.439 184.956 437.439 184.972 437.439 184.98H443.723ZM439.332 178.323L316.898 107.506L313.757 112.959L436.191 183.776L439.332 178.323ZM312.186 110.229V149.571H318.469V110.229H312.186ZM318.469 149.571V110.229H312.186V149.571H318.469ZM316.898 107.506C314.432 106.082 311.393 105.452 308.526 105.452C305.659 105.452 302.619 106.074 300.153 107.506L303.295 112.959C304.583 112.211 306.468 111.747 308.526 111.747C310.584 111.747 312.469 112.211 313.757 112.959L316.898 107.506ZM301.724 149.571L303.295 152.294C304.269 151.735 304.866 150.689 304.866 149.571H301.724ZM299.854 150.649H296.713C296.713 151.775 297.31 152.813 298.284 153.372C299.258 153.931 300.451 153.931 301.425 153.372L299.854 150.649ZM299.854 113.62H302.996C302.996 112.495 302.399 111.456 301.425 110.897C300.451 110.339 299.258 110.339 298.284 110.897L299.854 113.62ZM179.29 183.359H176.148C176.148 184.484 176.745 185.523 177.719 186.081C178.693 186.64 179.887 186.64 180.861 186.081L179.29 183.359ZM179.29 181.046H182.432C182.432 179.92 181.835 178.882 180.861 178.323C179.887 177.764 178.693 177.764 177.719 178.323L179.29 181.046ZM315.328 110.229L316.898 107.506C315.925 106.947 314.731 106.947 313.757 107.506C312.783 108.065 312.186 109.111 312.186 110.229H315.328ZM312.186 149.571C312.186 151.31 313.592 152.719 315.328 152.719C317.063 152.719 318.469 151.31 318.469 149.571H312.186ZM301.724 110.229L300.153 107.506C299.179 108.065 298.582 109.111 298.582 110.229H301.724ZM315.328 110.229H318.469C318.469 109.103 317.872 108.065 316.898 107.506L315.328 110.229Z" fill="#1B1B1B"/>
</g>
<path d="M297.301 256.97L290.703 253.052V290.978L297.301 294.897V256.97Z" fill="#1B1B1B"/>
<path d="M291.101 290.977V253.051H290.315V290.977H291.101ZM297.51 294.557L290.912 290.639L290.512 291.316L297.109 295.234L297.51 294.557ZM296.921 256.969V294.896H297.706V256.969H296.921ZM290.512 253.389L297.109 257.308L297.51 256.631L290.912 252.712L290.512 253.389ZM290.708 290.977H290.315V291.205L290.512 291.323L290.708 290.985V290.977ZM297.306 294.896L297.109 295.234L297.699 295.588V294.896H297.306ZM297.306 256.969H297.699V256.741L297.502 256.623L297.306 256.962V256.969ZM290.708 253.051L290.905 252.712L290.315 252.358V253.051H290.708Z" fill="#1B1B1B"/>
<path d="M315.331 259.724L437.765 188.907V228.25L315.331 299.067V259.724Z" fill="#1B1B1B"/>
<path d="M301.727 259.724C305.481 261.895 311.576 261.895 315.331 259.724V299.066C311.576 301.238 305.481 301.238 301.727 299.066V259.724Z" fill="#1B1B1B"/>
<path d="M301.726 110.22C305.481 108.049 311.576 108.049 315.33 110.22L437.764 181.037C441.518 183.209 441.518 186.734 437.764 188.906L315.33 259.723C311.576 261.895 305.481 261.895 301.726 259.723L179.293 188.906C175.538 186.734 175.538 183.209 179.293 181.037L301.726 110.22Z" fill="white"/>
<mask id="mask5_9_648" style="mask-type:luminance" maskUnits="userSpaceOnUse" x="176" y="108" width="265" height="154">
<path d="M301.726 110.22C305.481 108.049 311.576 108.049 315.33 110.22L437.764 181.037C441.518 183.209 441.518 186.734 437.764 188.906L315.33 259.723C311.576 261.895 305.481 261.895 301.726 259.723L179.293 188.906C175.538 186.734 175.538 183.209 179.293 181.037L301.726 110.22Z" fill="white"/>
</mask>
<g mask="url(#mask5_9_648)">
<path d="M318.05 108.647C312.787 105.602 304.265 105.602 299.003 108.647L304.446 111.795C306.7 110.489 310.352 110.489 312.607 111.795L318.05 108.647ZM435.048 182.612C437.303 183.918 437.303 186.027 435.048 187.333L440.491 190.48C445.754 187.435 445.754 182.51 440.491 179.464L435.048 182.612ZM312.615 258.15C310.36 259.456 306.708 259.456 304.454 258.15L299.011 261.297C304.273 264.342 312.795 264.342 318.058 261.297L312.615 258.15ZM182.012 187.333C179.758 186.027 179.758 183.918 182.012 182.612L176.569 179.464C171.307 182.51 171.307 187.435 176.569 190.48L182.012 187.333ZM182.012 182.612L304.446 111.795L299.003 108.647L176.569 179.464L182.012 182.612ZM304.446 258.15L182.012 187.333L176.569 190.48L299.003 261.297L304.446 258.15ZM435.048 187.333L312.615 258.15L318.058 261.297L440.491 190.48L435.048 187.333ZM312.615 111.795L435.048 182.612L440.491 179.464L318.058 108.647L312.615 111.795Z" fill="#1B1B1B"/>
</g>
<path d="M191.846 214.72C193.176 213.951 193.178 211.46 191.85 209.157C190.523 206.854 188.369 205.61 187.039 206.379C185.709 207.148 185.707 209.639 187.034 211.942C188.362 214.246 190.516 215.489 191.846 214.72Z" fill="#9DF25B"/>
<path d="M204.204 219.082C204.204 221.254 202.681 222.135 200.804 221.05C198.926 219.964 197.403 217.32 197.403 215.148C197.403 212.976 198.926 212.095 200.804 213.181C202.681 214.267 204.204 216.911 204.204 219.082Z" fill="#9DF25B"/>
<path d="M215.563 225.653C215.563 227.825 214.04 228.706 212.163 227.62C210.285 226.534 208.762 223.89 208.762 221.719C208.762 219.547 210.285 218.666 212.163 219.752C214.04 220.837 215.563 223.481 215.563 225.653Z" fill="#9DF25B"/>
<path d="M226.918 232.222C226.918 234.394 225.394 235.275 223.517 234.19C221.64 233.104 220.116 230.46 220.116 228.288C220.116 226.116 221.64 225.235 223.517 226.321C225.394 227.407 226.918 230.051 226.918 232.222Z" fill="#4379CB"/>
<path fill-rule="evenodd" clip-rule="evenodd" d="M427.482 148.801C427.482 150.083 426.633 151.366 424.945 152.341L314.646 216.14V251.58L424.945 187.781C426.633 186.806 427.482 185.523 427.482 184.233V148.793V148.801ZM302.385 81.4616C305.77 79.5023 311.253 79.5023 314.638 81.4616L213.167 164.546L302.385 216.148C305.77 218.107 311.253 218.107 314.638 216.148V251.587C311.253 253.547 305.77 253.547 302.385 251.587L192.086 187.789C190.398 186.814 189.549 185.531 189.549 184.248V148.808C189.549 147.526 190.398 146.243 192.086 145.26L302.385 81.4616Z" fill="#9DF25B"/>
<path d="M302.383 81.4539C305.768 79.4946 311.25 79.4946 314.636 81.4539L424.935 145.252C428.32 147.211 428.32 150.382 424.935 152.342L314.636 216.14C311.25 218.099 305.768 218.099 302.383 216.14L192.084 152.342C188.699 150.382 188.699 147.211 192.084 145.252L302.383 81.4539Z" fill="#9DF25B"/>
<path fill-rule="evenodd" clip-rule="evenodd" d="M301.722 55.5263C305.476 53.3545 311.571 53.3545 315.325 55.5263L437.759 126.343C439.636 127.429 440.579 128.853 440.579 130.277V169.62C440.579 171.044 439.636 172.469 437.759 173.554L315.325 244.371C311.571 246.543 305.476 246.543 301.722 244.371L179.288 173.554C177.411 172.469 176.468 171.044 176.468 169.62V130.277C176.468 128.853 177.411 127.429 179.288 126.343V128.657L299.852 58.9176V95.947L301.722 94.869V55.5263Z" fill="white"/>
<mask id="mask6_9_648" style="mask-type:luminance" maskUnits="userSpaceOnUse" x="176" y="53" width="265" height="194">
<path d="M301.722 55.5263C305.476 53.3545 311.571 53.3545 315.325 55.5263L437.759 126.343C439.636 127.429 440.579 128.853 440.579 130.277V169.62C440.579 171.044 439.636 172.469 437.759 173.554L315.325 244.371C311.571 246.543 305.476 246.543 301.722 244.371L179.288 173.554C177.411 172.469 176.468 171.044 176.468 169.62V130.277C176.468 128.853 177.411 127.429 179.288 126.343V128.657L299.852 58.9176V95.947L301.722 94.869V55.5263Z" fill="white"/>
</mask>
<g mask="url(#mask6_9_648)">
<path d="M298.582 55.5266V94.8693H304.866V55.5266H298.582ZM300.153 92.1468L298.284 93.2248L301.425 98.6777L303.295 97.5997L300.153 92.1468ZM302.996 95.9552V58.9258H296.713V95.9552H302.996ZM298.284 56.2033L177.719 125.942L180.861 131.395L301.425 61.6562L298.284 56.2033ZM182.432 128.665V126.351H176.148V128.665H182.432ZM177.719 123.629C175.269 125.045 173.328 127.343 173.328 130.294H179.612C179.612 130.294 179.612 130.27 179.628 130.231C179.643 130.191 179.675 130.113 179.746 130.01C179.903 129.79 180.225 129.452 180.861 129.09L177.719 123.637V123.629ZM173.328 130.286V169.628H179.612V130.286H173.328ZM173.328 169.628C173.328 172.571 175.269 174.869 177.719 176.285L180.861 170.832C180.232 170.47 179.903 170.132 179.746 169.912C179.667 169.802 179.636 169.731 179.628 169.691C179.612 169.652 179.612 169.636 179.612 169.628H173.328ZM177.719 176.285L300.153 247.102L303.295 241.649L180.861 170.832L177.719 176.285ZM300.153 247.102C302.619 248.526 305.659 249.156 308.526 249.156C311.393 249.156 314.432 248.534 316.898 247.102L313.757 241.649C312.469 242.397 310.584 242.861 308.526 242.861C306.468 242.861 304.583 242.397 303.295 241.649L300.153 247.102ZM316.898 247.102L439.332 176.285L436.191 170.832L313.757 241.649L316.898 247.102ZM439.332 176.285C441.783 174.869 443.723 172.571 443.723 169.621H437.439C437.439 169.621 437.439 169.644 437.424 169.684C437.408 169.723 437.377 169.802 437.306 169.904C437.149 170.124 436.827 170.462 436.191 170.824L439.332 176.277V176.285ZM443.723 169.628V130.286H437.439V169.628H443.723ZM443.723 130.286C443.723 127.343 441.783 125.045 439.332 123.629L436.191 129.082C436.819 129.444 437.149 129.782 437.306 130.002C437.384 130.113 437.416 130.183 437.424 130.223C437.439 130.262 437.439 130.278 437.439 130.286H443.723ZM439.332 123.629L316.898 52.8119L313.757 58.2648L436.191 129.082L439.332 123.629ZM312.186 55.5345V94.8772H318.469V55.5345H312.186ZM318.469 94.8772V55.5345H312.186V94.8772H318.469ZM316.898 52.8119C314.432 51.3877 311.393 50.7583 308.526 50.7583C305.659 50.7583 302.619 51.3799 300.153 52.8119L303.295 58.2648C304.583 57.5173 306.468 57.0531 308.526 57.0531C310.584 57.0531 312.469 57.5173 313.757 58.2648L316.898 52.8119ZM301.724 94.8772L303.295 97.5997C304.269 97.0411 304.866 95.9945 304.866 94.8772H301.724ZM299.854 95.9552H296.713C296.713 97.0804 297.31 98.119 298.284 98.6777C299.258 99.2364 300.451 99.2364 301.425 98.6777L299.854 95.9552ZM299.854 58.9258H302.996C302.996 57.8006 302.399 56.762 301.425 56.2033C300.451 55.6446 299.258 55.6446 298.284 56.2033L299.854 58.9258ZM179.29 128.665H176.148C176.148 129.79 176.745 130.829 177.719 131.387C178.693 131.946 179.887 131.946 180.861 131.387L179.29 128.665ZM179.29 126.351H182.432C182.432 125.226 181.835 124.188 180.861 123.629C179.887 123.07 178.693 123.07 177.719 123.629L179.29 126.351ZM315.328 55.5345L316.898 52.8119C315.925 52.2533 314.731 52.2533 313.757 52.8119C312.783 53.3706 312.186 54.4171 312.186 55.5345H315.328ZM312.186 94.8772C312.186 96.6162 313.592 98.0246 315.328 98.0246C317.063 98.0246 318.469 96.6162 318.469 94.8772H312.186ZM301.724 55.5345L300.153 52.8119C299.179 53.3706 298.582 54.4171 298.582 55.5345H301.724ZM315.328 55.5345H318.469C318.469 54.4093 317.872 53.3706 316.898 52.8119L315.328 55.5345Z" fill="#1B1B1B"/>
</g>
<path d="M297.301 202.275L290.703 198.364V236.29L297.301 240.201V202.275Z" fill="#1B1B1B"/>
<path d="M291.101 236.291V198.364H290.315V236.291H291.101ZM297.51 239.871L290.912 235.952L290.512 236.629L297.109 240.548L297.51 239.871ZM296.921 202.283V240.209H297.706V202.283H296.921ZM290.512 198.703L297.109 202.621L297.51 201.945L290.912 198.026L290.512 198.703ZM290.708 236.291H290.315V236.519L290.512 236.637L290.708 236.299V236.291ZM297.306 240.209L297.109 240.548L297.699 240.902V240.209H297.306ZM297.306 202.283H297.699V202.055L297.502 201.937L297.306 202.275V202.283ZM290.708 198.364L290.905 198.026L290.315 197.672V198.364H290.708Z" fill="#1B1B1B"/>
<path d="M315.331 205.03L437.765 134.213V173.556L315.331 244.373V205.03Z" fill="#1B1B1B"/>
<path d="M301.727 205.029C305.481 207.201 311.576 207.201 315.331 205.029V244.372C311.576 246.544 305.481 246.544 301.727 244.372V205.029Z" fill="#1B1B1B"/>
<path d="M301.726 55.5263C305.481 53.3545 311.576 53.3545 315.33 55.5263L437.764 126.343C441.518 128.515 441.518 132.04 437.764 134.212L315.33 205.029C311.576 207.2 305.481 207.2 301.726 205.029L179.293 134.212C175.538 132.04 175.538 128.515 179.293 126.343L301.726 55.5263Z" fill="white"/>
<mask id="mask7_9_648" style="mask-type:luminance" maskUnits="userSpaceOnUse" x="176" y="53" width="265" height="154">
<path d="M301.726 55.5263C305.481 53.3545 311.576 53.3545 315.33 55.5263L437.764 126.343C441.518 128.515 441.518 132.04 437.764 134.212L315.33 205.029C311.576 207.2 305.481 207.2 301.726 205.029L179.293 134.212C175.538 132.04 175.538 128.515 179.293 126.343L301.726 55.5263Z" fill="white"/>
</mask>
<g mask="url(#mask7_9_648)">
<path d="M318.05 53.9533C312.787 50.9082 304.265 50.9082 299.003 53.9533L304.446 57.1008C306.7 55.7946 310.352 55.7946 312.607 57.1008L318.05 53.9533ZM435.048 127.918C437.303 129.224 437.303 131.333 435.048 132.639L440.491 135.786C445.754 132.741 445.754 127.815 440.491 124.77L435.048 127.918ZM312.615 203.456C310.36 204.762 306.708 204.762 304.454 203.456L299.011 206.603C304.273 209.648 312.795 209.648 318.058 206.603L312.615 203.456ZM182.012 132.639C179.758 131.333 179.758 129.224 182.012 127.918L176.569 124.77C171.307 127.815 171.307 132.741 176.569 135.786L182.012 132.639ZM182.012 127.918L304.446 57.1008L299.003 53.9533L176.569 124.77L182.012 127.918ZM304.446 203.456L182.012 132.639L176.569 135.786L299.003 206.603L304.446 203.456ZM435.048 132.639L312.615 203.456L318.058 206.603L440.491 135.786L435.048 132.639ZM312.615 57.1008L435.048 127.918L440.491 124.77L318.058 53.9533L312.615 57.1008Z" fill="#1B1B1B"/>
</g>
<path d="M191.846 160.02C193.176 159.251 193.178 156.761 191.85 154.457C190.523 152.154 188.369 150.91 187.039 151.68C185.709 152.449 185.707 154.94 187.034 157.243C188.362 159.546 190.516 160.79 191.846 160.02Z" fill="#9DF25B"/>
<path d="M204.204 164.388C204.204 166.56 202.681 167.441 200.804 166.355C198.926 165.27 197.403 162.626 197.403 160.454C197.403 158.282 198.926 157.401 200.804 158.487C202.681 159.573 204.204 162.217 204.204 164.388Z" fill="#9DF25B"/>
<path d="M215.563 170.958C215.563 173.13 214.04 174.011 212.163 172.925C210.285 171.839 208.762 169.195 208.762 167.024C208.762 164.852 210.285 163.971 212.163 165.056C214.04 166.142 215.563 168.786 215.563 170.958Z" fill="#9DF25B"/>
<path d="M226.918 177.528C226.918 179.7 225.394 180.581 223.517 179.495C221.64 178.41 220.116 175.766 220.116 173.594C220.116 171.422 221.64 170.541 223.517 171.627C225.394 172.713 226.918 175.357 226.918 177.528Z" fill="#4379CB"/>
<path fill-rule="evenodd" clip-rule="evenodd" d="M427.482 94.1063C427.482 95.3889 426.633 96.6715 424.945 97.6472L314.646 161.445V196.885L424.945 133.087C426.633 132.111 427.482 130.829 427.482 129.538V94.0984V94.1063ZM302.385 26.7673C305.77 24.808 311.253 24.808 314.638 26.7673L213.167 109.851L302.385 161.453C305.77 163.412 311.253 163.412 314.638 161.453V196.893C311.253 198.852 305.77 198.852 302.385 196.893L192.086 133.095C190.398 132.119 189.549 130.837 189.549 129.554V94.1142C189.549 92.8316 190.398 91.549 192.086 90.5655L302.385 26.7673Z" fill="#9DF25B"/>
<path d="M302.383 26.7675C305.768 24.8082 311.25 24.8082 314.636 26.7675L424.935 90.5657C428.32 92.5249 428.32 95.6959 424.935 97.6552L314.636 161.453C311.25 163.413 305.768 163.413 302.383 161.453L192.084 97.6552C188.699 95.6959 188.699 92.5249 192.084 90.5657L302.383 26.7675Z" fill="#9DF25B"/>
<path fill-rule="evenodd" clip-rule="evenodd" d="M301.722 1.93415C305.476 -0.237571 311.571 -0.237571 315.325 1.93415L437.759 72.7511C439.636 73.837 440.579 75.2612 440.579 76.6854V116.028C440.579 117.452 439.636 118.877 437.759 119.962L315.325 190.779C311.571 192.951 305.476 192.951 301.722 190.779L179.288 119.962C177.411 118.877 176.468 117.452 176.468 116.028V76.6854C176.468 75.2612 177.411 73.837 179.288 72.7511V75.0645L299.852 5.32549V42.3549L301.722 41.2769V1.93415Z" fill="white"/>
<mask id="mask8_9_648" style="mask-type:luminance" maskUnits="userSpaceOnUse" x="176" y="0" width="265" height="193">
<path d="M301.722 1.93415C305.476 -0.237571 311.571 -0.237571 315.325 1.93415L437.759 72.7511C439.636 73.837 440.579 75.2612 440.579 76.6854V116.028C440.579 117.452 439.636 118.877 437.759 119.962L315.325 190.779C311.571 192.951 305.476 192.951 301.722 190.779L179.288 119.962C177.411 118.877 176.468 117.452 176.468 116.028V76.6854C176.468 75.2612 177.411 73.837 179.288 72.7511V75.0645L299.852 5.32549V42.3549L301.722 41.2769V1.93415Z" fill="white"/>
</mask>
<g mask="url(#mask8_9_648)">
<path d="M298.582 1.93473V41.2775H304.866V1.93473H298.582ZM300.153 38.555L298.284 39.633L301.425 45.0859L303.295 44.0079L300.153 38.555ZM302.996 42.3633V5.32608H296.713V42.3555H302.996V42.3633ZM298.284 2.61143L177.719 72.3504L180.861 77.8033L301.425 8.05646L298.284 2.60356V2.61143ZM182.432 75.0729V72.7596H176.148V75.0729H182.432ZM177.719 70.037C175.269 71.4534 173.328 73.751 173.328 76.7017H179.612C179.612 76.7017 179.612 76.6781 179.628 76.6387C179.643 76.5994 179.675 76.5207 179.746 76.4184C179.903 76.1981 180.225 75.8598 180.861 75.4978L177.719 70.0449V70.037ZM173.328 76.6938V116.037H179.612V76.6938H173.328ZM173.328 116.037C173.328 118.979 175.269 121.277 177.719 122.693L180.861 117.24C180.232 116.879 179.903 116.54 179.746 116.32C179.667 116.21 179.636 116.139 179.628 116.1C179.612 116.06 179.612 116.044 179.612 116.037H173.328ZM177.719 122.693L300.153 193.51L303.295 188.057L180.861 117.24L177.719 122.693ZM300.153 193.51C302.619 194.935 305.659 195.564 308.526 195.564C311.393 195.564 314.432 194.942 316.898 193.51L313.757 188.057C312.469 188.805 310.584 189.269 308.526 189.269C306.468 189.269 304.583 188.805 303.295 188.057L300.153 193.51ZM316.898 193.51L439.332 122.693L436.191 117.24L313.757 188.057L316.898 193.51ZM439.332 122.693C441.783 121.277 443.723 118.979 443.723 116.029H437.439C437.439 116.029 437.439 116.052 437.424 116.092C437.408 116.131 437.377 116.21 437.306 116.312C437.149 116.532 436.827 116.871 436.191 117.233L439.332 122.686V122.693ZM443.723 116.037V76.6938H437.439V116.037H443.723ZM443.723 76.6938C443.723 73.751 441.783 71.4534 439.332 70.037L436.191 75.4899C436.819 75.8519 437.149 76.1902 437.306 76.4106C437.384 76.5207 437.416 76.5915 437.424 76.6309C437.439 76.6702 437.439 76.686 437.439 76.6938H443.723ZM439.332 70.037L316.898 -0.787785L313.757 4.66512L436.191 75.4821L439.332 70.0292V70.037ZM312.186 1.93473V41.2775H318.469V1.93473H312.186ZM318.469 41.2775V1.93473H312.186V41.2775H318.469ZM316.898 -0.787785C314.432 -2.21199 311.393 -2.84148 308.526 -2.84148C305.659 -2.84148 302.619 -2.21986 300.153 -0.787785L303.295 4.66512C304.583 3.91761 306.468 3.45336 308.526 3.45336C310.584 3.45336 312.469 3.91761 313.757 4.66512L316.898 -0.787785ZM301.724 41.2775L303.295 44C304.269 43.4413 304.866 42.3948 304.866 41.2775H301.724ZM299.854 42.3555H296.713C296.713 43.4807 297.31 44.5193 298.284 45.078C299.258 45.6367 300.451 45.6367 301.425 45.078L299.854 42.3555ZM299.854 5.32608H302.996C302.996 4.20088 302.399 3.16223 301.425 2.60356C300.451 2.04489 299.258 2.04489 298.284 2.60356L299.854 5.32608ZM179.29 75.065H176.148C176.148 76.1902 176.745 77.2289 177.719 77.7876C178.693 78.3462 179.887 78.3462 180.861 77.7876L179.29 75.065ZM179.29 72.7517H182.432C182.432 71.6265 181.835 70.5878 180.861 70.0292C179.887 69.4705 178.693 69.4705 177.719 70.0292L179.29 72.7517ZM315.328 1.93473L316.898 -0.787785C315.925 -1.34645 314.731 -1.34645 313.757 -0.787785C312.783 -0.229118 312.186 0.8174 312.186 1.93473H315.328ZM312.186 41.2775C312.186 43.0164 313.592 44.4249 315.328 44.4249C317.063 44.4249 318.469 43.0164 318.469 41.2775H312.186ZM301.724 1.93473L300.153 -0.787785C299.179 -0.229118 298.582 0.8174 298.582 1.93473H301.724ZM315.328 1.93473H318.469C318.469 0.809531 317.872 -0.229118 316.898 -0.787785L315.328 1.93473Z" fill="#1B1B1B"/>
</g>
<path d="M297.301 148.683L290.703 144.764V182.691L297.301 186.609V148.683Z" fill="#1B1B1B"/>
<path d="M291.101 182.69V144.764H290.315V182.69H291.101ZM297.51 186.27L290.912 182.352L290.512 183.028L297.109 186.947L297.51 186.27ZM296.921 148.682V186.608H297.706V148.682H296.921ZM290.512 145.102L297.109 149.02L297.51 148.344L290.912 144.425L290.512 145.102ZM290.708 182.69H290.315V182.918L290.512 183.036L290.708 182.698V182.69ZM297.306 186.608L297.109 186.947L297.699 187.301V186.608H297.306ZM297.306 148.682H297.699V148.454L297.502 148.336L297.306 148.674V148.682ZM290.708 144.764L290.905 144.425L290.315 144.071V144.764H290.708Z" fill="#1B1B1B"/>
<path d="M315.331 151.437L437.765 80.6199V119.963L315.331 190.78V151.437Z" fill="#1B1B1B"/>
<path d="M301.727 151.437C305.481 153.609 311.576 153.609 315.331 151.437V190.78C311.576 192.952 305.481 192.952 301.727 190.78V151.437Z" fill="#1B1B1B"/>
<path d="M301.726 1.93415C305.481 -0.237571 311.576 -0.237571 315.33 1.93415L437.764 72.7511C441.518 74.9228 441.518 78.4479 437.764 80.6196L315.33 151.437C311.576 153.608 305.481 153.608 301.726 151.437L179.293 80.6196C175.538 78.4479 175.538 74.9228 179.293 72.7511L301.726 1.93415Z" fill="white"/>
<mask id="mask9_9_648" style="mask-type:luminance" maskUnits="userSpaceOnUse" x="176" y="0" width="265" height="154">
<path d="M301.726 1.93415C305.481 -0.237571 311.576 -0.237571 315.33 1.93415L437.764 72.7511C441.518 74.9228 441.518 78.4479 437.764 80.6196L315.33 151.437C311.576 153.608 305.481 153.608 301.726 151.437L179.293 80.6196C175.538 78.4479 175.538 74.9228 179.293 72.7511L301.726 1.93415Z" fill="white"/>
</mask>
<g mask="url(#mask9_9_648)">
<path d="M318.05 0.360155C312.787 -2.68497 304.265 -2.68497 299.003 0.360155L304.446 3.50758C306.7 2.2014 310.352 2.2014 312.607 3.50758L318.05 0.360155ZM435.048 74.3245C437.303 75.6307 437.303 77.7395 435.048 79.0456L440.491 82.1931C445.754 79.1479 445.754 74.2222 440.491 71.1771L435.048 74.3245ZM312.615 149.863C310.36 151.169 306.708 151.169 304.454 149.863L299.011 153.01C304.273 156.055 312.795 156.055 318.058 153.01L312.615 149.863ZM182.012 79.0456C179.758 77.7395 179.758 75.6307 182.012 74.3245L176.569 71.1771C171.307 74.2222 171.307 79.1479 176.569 82.1931L182.012 79.0456ZM182.012 74.3245L304.446 3.50758L299.003 0.360155L176.569 71.1771L182.012 74.3245ZM304.446 149.863L182.012 79.0456L176.569 82.1931L299.003 153.01L304.446 149.863ZM435.048 79.0456L312.615 149.863L318.058 153.01L440.491 82.1931L435.048 79.0456ZM312.607 3.50758L435.041 74.3245L440.484 71.1771L318.05 0.360155L312.607 3.50758Z" fill="#1B1B1B"/>
</g>
<path d="M191.846 106.432C193.176 105.662 193.178 103.172 191.85 100.868C190.523 98.5652 188.369 97.3216 187.039 98.0908C185.709 98.86 185.707 101.351 187.034 103.654C188.362 105.957 190.516 107.201 191.846 106.432Z" fill="#9DF25B"/>
<path d="M204.204 110.796C204.204 112.968 202.681 113.849 200.804 112.763C198.926 111.678 197.403 109.034 197.403 106.862C197.403 104.69 198.926 103.809 200.804 104.895C202.681 105.981 204.204 108.625 204.204 110.796Z" fill="#9DF25B"/>
<path d="M215.563 117.366C215.563 119.537 214.04 120.419 212.163 119.333C210.285 118.247 208.762 115.603 208.762 113.431C208.762 111.26 210.285 110.378 212.163 111.464C214.04 112.55 215.563 115.194 215.563 117.366Z" fill="#9DF25B"/>
<path d="M226.918 123.936C226.918 126.108 225.394 126.989 223.517 125.903C221.64 124.817 220.116 122.174 220.116 120.002C220.116 117.83 221.64 116.949 223.517 118.035C225.394 119.121 226.918 121.765 226.918 123.936Z" fill="#4379CB"/>
<path d="M263.265 314.45C261.521 315.426 260.445 317.267 260.445 319.265H255.732C255.732 315.552 257.735 312.137 260.971 310.327L263.265 314.45ZM260.445 329.794C260.445 333.5 258.442 336.922 255.206 338.724L252.913 334.601C254.656 333.626 255.732 331.784 255.732 329.794H260.445ZM255.206 338.724L186.575 377.091L184.281 372.968L252.913 334.601L255.206 338.724ZM260.445 319.258V329.794H255.732V319.258H260.445ZM263.909 314.088L263.265 314.45L260.971 310.327L261.615 309.965L263.909 314.088ZM186.575 377.091C185.436 377.729 184.006 377.32 183.37 376.179C182.734 375.038 183.142 373.606 184.281 372.968L186.575 377.091ZM261.615 309.965C262.754 309.327 264.184 309.737 264.82 310.878C265.456 312.019 265.048 313.451 263.909 314.088L261.615 309.965Z" fill="#4379CB"/>
<path d="M254.308 309.948C252.564 310.924 251.488 312.765 251.488 314.764H246.776C246.776 311.05 248.779 307.635 252.015 305.825L254.308 309.948ZM251.488 325.292C251.488 328.998 249.486 332.421 246.25 334.223L243.956 330.1C245.7 329.124 246.776 327.283 246.776 325.292H251.488ZM246.25 334.223L177.618 372.59L175.325 368.467L243.956 330.1L246.25 334.223ZM251.488 314.756V325.292H246.776V314.756H251.488ZM254.952 309.586L254.308 309.948L252.015 305.825L252.659 305.463L254.952 309.586ZM177.618 372.59C176.479 373.227 175.05 372.818 174.414 371.677C173.777 370.536 174.186 369.104 175.325 368.467L177.618 372.59ZM252.659 305.463C253.798 304.826 255.227 305.235 255.863 306.376C256.5 307.517 256.091 308.949 254.952 309.586L252.659 305.463Z" fill="#4379CB"/>
<path d="M470.781 307.556C474.535 305.385 480.63 305.385 484.385 307.556L566.196 354.878C569.95 357.05 569.95 360.575 566.196 362.746L484.385 410.068C480.63 412.24 474.535 412.24 470.781 410.068L388.97 362.746C385.215 360.575 385.215 357.05 388.97 354.878L470.781 307.556Z" fill="#1B1B1B"/>
<path d="M132.692 333.562C136.447 331.39 142.542 331.39 146.296 333.562L228.107 380.883C231.862 383.055 231.862 386.58 228.107 388.752L146.296 436.073C142.542 438.245 136.447 438.245 132.692 436.073L50.8812 388.752C47.1268 386.58 47.1268 383.055 50.8812 380.883L132.692 333.562Z" fill="#1B1B1B"/>
<path fill-rule="evenodd" clip-rule="evenodd" d="M214.323 361.212C216.2 360.126 217.143 358.702 217.143 357.278V380.883C217.143 382.307 216.2 383.732 214.323 384.818L146.304 424.16C142.55 426.332 136.455 426.332 132.701 424.16L64.6818 384.818V361.212L132.701 400.555C136.455 402.726 142.55 402.726 146.304 400.555L214.323 361.212ZM61.8621 357.278C61.8621 358.702 62.8046 360.126 64.6818 361.212V384.818C62.8046 383.732 61.8621 382.307 61.8621 380.883V357.278Z" fill="#D4D4D4"/>
<path d="M132.45 424.027V400.406L126.174 396.778V420.4L132.45 424.027Z" fill="white"/>
<path d="M61.6832 357.277V386.446H64.8249V357.277H61.6832ZM61.6832 386.446C61.6832 387.312 62.3901 388.02 63.254 388.02C64.118 388.02 64.8249 387.312 64.8249 386.446H61.6832ZM64.8249 357.277C64.8249 356.412 64.118 355.704 63.254 355.704C62.3901 355.704 61.6832 356.412 61.6832 357.277H64.8249Z" fill="#1B1B1B"/>
<path d="M137.939 401.885V431.053H141.081V401.885H137.939ZM137.939 431.053C137.939 431.919 138.646 432.627 139.51 432.627C140.374 432.627 141.081 431.919 141.081 431.053H137.939ZM141.081 401.885C141.081 401.019 140.374 400.311 139.51 400.311C138.646 400.311 137.939 401.019 137.939 401.885H141.081Z" fill="#1B1B1B"/>
<path d="M214.064 357.678V386.847H217.206V357.678H214.064ZM214.064 386.847C214.064 387.713 214.771 388.421 215.635 388.421C216.499 388.421 217.206 387.713 217.206 386.847H214.064ZM217.206 357.678C217.206 356.813 216.499 356.105 215.635 356.105C214.771 356.105 214.064 356.813 214.064 357.678H217.206Z" fill="#1B1B1B"/>
<path d="M132.692 314.001C136.447 311.829 142.542 311.829 146.296 314.001L214.315 353.343C218.069 355.515 218.069 359.04 214.315 361.212L146.296 400.555C142.542 402.726 136.447 402.726 132.692 400.555L64.6733 361.212C60.9189 359.04 60.9189 355.515 64.6733 353.343L132.692 314.001Z" fill="#9DF25B"/>
<mask id="mask10_9_648" style="mask-type:luminance" maskUnits="userSpaceOnUse" x="61" y="312" width="157" height="91">
<path d="M132.692 314.001C136.447 311.829 142.542 311.829 146.296 314.001L214.315 353.343C218.069 355.515 218.069 359.04 214.315 361.212L146.296 400.555C142.542 402.726 136.447 402.726 132.692 400.555L64.6733 361.212C60.9189 359.04 60.9189 355.515 64.6733 353.343L132.692 314.001Z" fill="white"/>
</mask>
<g mask="url(#mask10_9_648)">
<path d="M149.015 312.428C143.753 309.382 135.231 309.382 129.969 312.428L135.412 315.575C137.666 314.269 141.318 314.269 143.572 315.575L149.015 312.428ZM211.591 354.918C213.845 356.224 213.845 358.333 211.591 359.639L217.034 362.786C222.297 359.741 222.297 354.815 217.034 351.77L211.591 354.918ZM143.572 398.982C141.318 400.288 137.666 400.288 135.412 398.982L129.969 402.129C135.231 405.174 143.753 405.174 149.015 402.129L143.572 398.982ZM67.3928 359.639C65.1386 358.333 65.1386 356.224 67.3928 354.918L61.9497 351.77C56.6873 354.815 56.6873 359.741 61.9497 362.786L67.3928 359.639ZM67.3928 354.918L135.412 315.575L129.969 312.428L61.9497 351.77L67.3928 354.918ZM135.412 398.982L67.3928 359.639L61.9497 362.786L129.969 402.129L135.412 398.982ZM211.591 359.639L143.572 398.982L149.015 402.129L217.034 362.786L211.591 359.639ZM143.572 315.575L211.591 354.918L217.034 351.77L149.015 312.428L143.572 315.575Z" fill="#1B1B1B"/>
</g>
<path d="M132.69 325.536C136.445 323.364 142.54 323.364 146.294 325.536L194.371 353.343C198.125 355.515 198.125 359.04 194.371 361.212L146.294 389.019C142.54 391.191 136.445 391.191 132.69 389.019L84.6138 361.212C80.8594 359.04 80.8594 355.515 84.6138 353.343L132.69 325.536Z" fill="#1B1B1B"/>
<mask id="mask11_9_648" style="mask-type:luminance" maskUnits="userSpaceOnUse" x="81" y="323" width="117" height="68">
<path d="M132.686 325.536C136.44 323.364 142.535 323.364 146.29 325.536L194.366 353.343C198.121 355.515 198.121 359.04 194.366 361.212L146.29 389.019C142.535 391.191 136.44 391.191 132.686 389.019L84.6094 361.212C80.855 359.04 80.855 355.515 84.6094 353.343L132.686 325.536Z" fill="white"/>
</mask>
<g mask="url(#mask11_9_648)">
<path d="M149.018 323.962C143.756 320.917 135.234 320.917 129.971 323.962L135.414 327.109C137.668 325.803 141.321 325.803 143.575 327.109L149.018 323.962ZM191.651 354.917C193.906 356.223 193.906 358.332 191.651 359.638L197.095 362.785C202.357 359.74 202.357 354.815 197.095 351.769L191.651 354.917ZM143.575 387.445C141.321 388.752 137.668 388.752 135.414 387.445L129.971 390.593C135.234 393.638 143.756 393.638 149.018 390.593L143.575 387.445ZM87.3376 359.638C85.0834 358.332 85.0834 356.223 87.3376 354.917L81.8945 351.769C76.6321 354.815 76.6321 359.74 81.8945 362.785L87.3376 359.638ZM87.3376 354.917L135.414 327.109L129.971 323.962L81.8945 351.769L87.3376 354.917ZM135.414 387.445L87.3376 359.638L81.8945 362.785L129.971 390.593L135.414 387.445ZM191.651 359.638L143.575 387.445L149.018 390.593L197.095 362.785L191.651 359.638ZM143.575 327.109L191.651 354.917L197.095 351.769L149.018 323.962L143.575 327.109Z" fill="#1B1B1B"/>
</g>
<path d="M134.711 367.594L157.45 367.476L157.662 354.327L164.581 354.288L164.306 371.441L134.648 371.599L134.711 367.594ZM121.979 360.229L122.191 347.08L144.93 346.962L144.993 342.957L115.334 343.115L115.06 360.268L121.979 360.229Z" fill="#9DF25B"/>
<path d="M96.5069 165.962H84.0106V163.051H91.4565L91.4722 152.349H96.5069V165.962ZM100.772 149.115C97.1352 147.707 92.7603 147.07 88.4012 147.314C84.042 147.557 79.9656 148.675 76.8631 150.469C71.7028 153.451 70.1476 157.739 72.2055 161.508C69.8649 163.192 68.6789 165.317 68.8831 167.473C69.0873 169.629 70.6582 171.667 73.2972 173.193C79.2037 176.608 88.8175 176.608 94.7239 173.193L117.934 159.769C122.858 156.921 122.858 152.294 117.934 149.446C113.221 146.723 105.736 146.629 100.772 149.123V149.115Z" fill="#9DF25B"/>
</svg>
